<svg xmlns="http://www.w3.org/2000/svg" xmlns:xlink="http://www.w3.org/1999/xlink">
  <defs/>
  <g>
    <path stroke="none" fill="#368DCD" d="M432.6 157.75 L432.3 157.75 392.25 161.6 Q390.65 161.75 389.6 162.9 388.45 164 388.4 165.6 L387.1 183.15 352.25 185.65 349.85 169.4 Q349.55 167.85 348.35 166.8 347.15 165.75 345.55 165.75 L303.3 165.75 Q301.75 165.75 300.55 166.8 299.35 167.85 299 169.4 L296.7 185.65 261.75 183.15 260.55 165.6 Q260.4 164 259.25 162.9 258.2 161.75 256.65 161.6 L216.55 157.75 216.2 157.75 216.2 92.75 Q209.6 84.5 201.15 71.35 209.5 57.3 223.25 42.5 234.3 48.05 245.2 55.2 247.4 52.95 250.7 50.35 L256.4 45.95 Q258.75 44.15 262.4 41.9 L268.6 38.1 Q266.85 25.5 266.55 11.2 280.6 4.15 299.4 0 305.7 10.6 311.6 23.6 L324.35 22.65 324.5 22.65 337.35 23.6 Q343 11 349.45 0 368.25 4.15 382.4 11.2 382 25.8 380.35 38.1 L386.5 41.9 Q390.1 44.15 392.45 45.95 L398.15 50.35 Q401.45 52.95 403.65 55.2 414.55 48.05 425.6 42.5 439.35 57.2 447.7 71.35 440.2 83.35 432.65 92.75 L432.65 152.6 432.6 152.6 432.6 157.75 M357.05 119.15 Q357.05 129.05 364.1 136.15 371.2 143.1 381.2 143.1 391.15 143.1 398.25 136.15 405.3 129.05 405.3 119.15 405.3 109.2 398.25 102.15 391.15 95.15 381.2 95.15 371.2 95.15 364.1 102.15 357.05 109.2 357.05 119.15 M216.2 166.35 L252.1 169.8 253.4 187.55 Q253.5 189.1 254.7 190.25 255.8 191.35 257.4 191.5 L300 194.5 Q301.75 194.6 303 193.55 304.35 192.5 304.6 190.85 L307.05 174.3 341.85 174.3 344.25 190.85 Q344.5 192.4 345.7 193.45 346.9 194.5 348.55 194.5 L348.85 194.5 391.5 191.5 Q393.05 191.35 394.25 190.25 395.4 189.1 395.45 187.55 L396.75 169.8 432.65 166.35 432.6 175.3 Q432.6 202.5 401 217.5 372 231.35 324.5 231.5 L324.35 231.5 Q276.95 231.35 247.85 217.5 216.2 202.5 216.2 175.3 L216.2 166.35 M324.45 145.35 Q327.65 145.35 329.9 143.25 332.15 141.25 332.15 138.3 L332.15 116.2 Q332.15 113.3 329.9 111.25 327.65 109.15 324.45 109.15 321.2 109.15 318.95 111.25 316.7 113.3 316.7 116.2 L316.7 138.3 Q316.7 141.25 318.95 143.25 321.2 145.35 324.45 145.35 M291.8 119.15 Q291.8 109.2 284.75 102.15 277.7 95.15 267.7 95.15 257.7 95.15 250.6 102.15 243.55 109.2 243.55 119.15 243.55 129.05 250.6 136.15 257.7 143.1 267.7 143.1 277.7 143.1 284.75 136.15 291.8 129.05 291.8 119.15"/>
    <path stroke="none" fill="#232325" d="M362.9 120.55 Q362.9 113.95 367.55 109.3 372.25 104.55 378.85 104.55 385.55 104.55 390.2 109.3 394.85 113.95 394.85 120.55 394.85 127.2 390.2 131.85 385.55 136.5 378.85 136.5 372.25 136.5 367.55 131.85 362.9 127.2 362.9 120.55 M320.65 337.6 Q330.35 337.4 336.25 331.45 342 325.45 342 315.5 342 305.6 336.25 299.65 330.35 293.65 320.65 293.65 L307.75 293.65 307.75 337.6 320.65 337.6 M321.8 271.35 Q335.05 271.35 345 276.8 355.1 282.45 360.8 292.55 366.35 302.5 366.5 315.5 366.35 328.55 360.65 338.45 355.1 348.45 344.95 354.25 335.05 359.85 321.8 360 L290.75 360 Q283.6 359.55 283.85 353.1 L283.85 278.25 Q283.6 271.1 290.75 271.35 L321.8 271.35 M501.15 293.9 L476.35 293.9 Q470.45 293.5 470.1 287.65 L470.1 278.7 Q469.85 272.9 476.35 272.45 L549.9 272.45 Q555.95 272.9 556.15 277.95 L556.15 278.7 556.15 287.65 Q555.8 293.5 549.9 293.9 L525.05 293.9 525.05 352.1 Q525.2 358.8 518.2 358.95 L508 358.95 Q500.55 359.1 501.15 352.1 L501.15 293.9 M419.95 338 Q426.5 338 431.6 335.05 436.7 332.05 439.6 326.8 442.45 321.7 442.6 315 442.45 308.1 439.6 302.9 436.7 297.7 431.6 294.8 426.5 291.85 419.95 291.85 413.25 291.85 408.25 294.8 403.15 297.7 400.1 303.05 397.25 308.1 397.25 315 397.25 321.7 400.1 326.8 403.15 332.05 408.25 334.9 413.25 338 419.95 338 M419.95 360 Q406 359.95 395.45 354.15 384.7 348.35 378.7 338.3 372.6 328.15 372.55 315 372.6 301.6 378.7 291.45 384.7 281.4 395.45 275.6 406 269.85 419.95 269.85 433.95 269.85 444.55 275.6 455.15 281.4 461.15 291.45 467 301.6 467.25 315 467 328.15 461.15 338.35 455.15 348.5 444.55 354.15 433.95 359.95 419.95 360 M286 120.55 Q286 127.2 281.35 131.85 276.65 136.5 270 136.5 263.4 136.5 258.65 131.85 254 127.2 254 120.55 254 113.95 258.65 109.3 263.4 104.55 270 104.55 276.65 104.55 281.35 109.3 286 113.95 286 120.55 M169.9 336.95 Q164.25 347.6 153.95 353.85 143.65 359.95 130.05 360 116.75 359.95 106.25 354.15 95.95 348.35 90 338.3 83.9 328.15 83.9 315 83.9 301.7 89.85 291.6 95.7 281.5 106.15 275.75 116.4 269.85 129.85 269.85 141.25 269.85 150.8 274.2 155.85 276.45 160.05 279.65 163.9 283.15 160.25 287.05 L151.8 295.45 Q148.25 298.7 142.9 295.7 L142.1 295.15 Q136.75 292 130.05 292 123.5 292 118.7 294.85 113.8 297.7 110.95 302.9 108.35 308.1 108.35 315 108.35 321.85 110.95 326.8 113.8 332.05 118.55 334.9 123.45 337.75 130.05 337.75 136.95 337.75 142.3 334.85 147.55 331.9 149.75 326.8 L133 326.8 Q128.25 326.05 128.1 322 L128.1 312.8 Q128.35 307.85 133 307.95 L165.15 307.95 Q177.05 308.15 175.45 318.15 174.4 328.6 169.9 336.95 M229.05 338 Q235.6 338 240.7 335.05 245.8 332.05 248.65 326.8 251.5 321.7 251.65 315 251.5 308.1 248.65 302.9 245.8 297.7 240.7 294.8 235.6 291.85 229.05 291.85 222.35 291.85 217.3 294.8 212.2 297.7 209.2 303.05 206.35 308.1 206.35 315 206.35 321.7 209.2 326.8 212.2 332.05 217.3 334.9 222.35 338 229.05 338 M229.05 360 Q215.05 359.95 204.55 354.15 193.8 348.35 187.8 338.3 181.7 328.15 181.6 315 181.7 301.6 187.8 291.45 193.8 281.4 204.55 275.6 215.05 269.85 229.05 269.85 243.05 269.85 253.65 275.6 264.2 281.4 270.25 291.45 276.1 301.6 276.35 315 276.1 328.15 270.25 338.35 264.2 348.5 253.65 354.15 243.05 359.95 229.05 360"/>
  </g>
</svg>