<svg xmlns="http://www.w3.org/2000/svg" xmlns:xlink="http://www.w3.org/1999/xlink">
  <defs/>
  <g>
    <path stroke="none" fill="#FFFFFF" d="M404.5 202.7 Q414.2 202.5 420.1 196.55 425.85 190.55 425.85 180.6 425.85 170.7 420.1 164.75 414.2 158.75 404.5 158.75 L391.55 158.75 391.55 202.7 404.5 202.7 M312.85 203.1 Q319.4 203.1 324.5 200.15 329.6 197.15 332.45 191.9 335.3 186.8 335.45 180.1 335.3 173.2 332.45 168 329.6 162.8 324.5 159.9 319.4 156.95 312.85 156.95 306.15 156.95 301.1 159.9 296 162.8 293 168.15 290.15 173.2 290.15 180.1 290.15 186.8 293 191.9 296 197.15 301.1 200 306.15 203.1 312.85 203.1 M312.85 225.1 Q298.85 225.05 288.35 219.25 277.6 213.45 271.6 203.4 265.5 193.25 265.4 180.1 265.5 166.7 271.6 156.55 274.95 150.9 279.85 146.6 283.65 143.25 288.35 140.7 298.85 134.95 312.85 134.95 326.85 134.95 337.45 140.7 342.05 143.25 345.85 146.6 350.65 150.9 354.05 156.55 359.9 166.7 360.15 180.1 359.9 193.25 354.05 203.45 348 213.6 337.45 219.25 326.85 225.05 312.85 225.1 M405.65 136.45 Q418.9 136.45 428.85 141.9 432.55 143.95 435.65 146.6 441.05 151.2 444.65 157.6 450.2 167.6 450.35 180.6 450.2 193.6 444.5 203.55 438.95 213.55 428.8 219.3 418.9 224.95 405.65 225.1 L374.55 225.1 Q367.4 224.65 367.65 218.2 L367.65 143.35 Q367.4 136.2 374.55 136.45 L405.65 136.45 M503.8 203.1 Q510.35 203.1 515.45 200.15 520.55 197.15 523.45 191.9 526.3 186.8 526.45 180.1 526.3 173.2 523.45 168 520.55 162.8 515.45 159.9 510.35 156.95 503.8 156.95 497.1 156.95 492.1 159.9 487 162.8 483.95 168.15 481.1 173.2 481.1 180.1 481.1 186.8 483.95 191.9 487 197.15 492.1 200 497.1 203.1 503.8 203.1 M585 158.95 L560.2 158.95 Q554.3 158.6 553.95 152.75 L553.95 143.8 Q553.7 138 560.2 137.55 L633.75 137.55 Q639.8 138 640 143.05 L640 143.8 640 152.75 Q639.65 158.6 633.75 158.95 L608.9 158.95 608.9 217.2 Q609.05 223.9 602.05 224.05 L591.85 224.05 Q584.4 224.2 585 217.2 L585 158.95 M503.8 225.1 Q489.85 225.05 479.3 219.25 468.55 213.45 462.55 203.4 456.45 193.25 456.4 180.1 456.45 166.7 462.55 156.55 465.9 150.9 470.8 146.6 474.6 143.25 479.3 140.7 489.85 134.95 503.8 134.95 517.8 134.95 528.4 140.7 533.05 143.25 536.8 146.6 541.65 150.9 545 156.55 550.85 166.7 551.1 180.1 550.85 193.25 545 203.45 539 213.6 528.4 219.25 517.8 225.05 503.8 225.1 M253.7 202.05 Q248.05 212.7 237.75 218.95 227.45 225.05 213.85 225.1 200.55 225.05 190.05 219.25 L190 219.25 Q179.75 213.45 173.8 203.4 167.7 193.25 167.7 180.1 167.7 166.8 173.65 156.7 177 150.95 181.8 146.6 185.45 143.3 189.95 140.85 L190 140.85 Q200.25 134.95 213.65 134.95 225.05 134.95 234.6 139.3 239.65 141.55 243.85 144.75 L245.35 146.6 Q246.75 149.25 244.05 152.15 L235.6 160.55 Q232.05 163.8 226.7 160.8 L225.9 160.25 Q220.55 157.1 213.85 157.1 207.3 157.1 202.5 159.95 197.6 162.8 194.75 168 192.15 173.2 192.15 180.1 192.15 186.95 194.75 191.9 197.6 197.15 202.35 200 207.25 202.85 213.85 202.85 220.75 202.85 226.1 199.95 231.35 197 233.55 191.9 L216.8 191.9 Q212.05 191.15 211.9 187.1 L211.9 177.9 Q212.15 172.95 216.8 173.05 L248.95 173.05 Q260.85 173.25 259.25 183.25 258.2 193.7 253.7 202.05 M129.85 209.45 Q130.35 227.5 109.85 237.3 94.25 244.85 68.75 244.95 L68.6 244.95 Q43.1 244.85 27.5 237.3 6.9 227.5 7.4 209.45 L7.4 171.2 1.25 162.1 Q0.05 160.3 0 158.15 0 155.95 1.05 154.1 5.55 146.5 13 138.55 14.75 136.65 17.25 136.2 19.75 135.75 22.05 136.9 25.4 138.6 28.8 140.6 L30.05 139.55 30.35 139.4 32.85 137.55 Q32.5 133.15 32.4 128.45 32.35 126.2 33.5 124.3 34.65 122.4 36.6 121.4 44.3 117.55 54.65 115.25 57 114.7 59.3 115.7 61.6 116.65 62.85 118.8 64.95 122.3 66.9 126.3 L68.55 126.25 68.75 126.25 70.45 126.3 Q72.35 122.4 74.45 118.8 75.7 116.7 78 115.7 80.25 114.7 82.75 115.25 93 117.55 100.75 121.4 102.7 122.4 103.9 124.3 105 126.2 105 128.5 L104.5 137.6 106.9 139.3 107.15 139.45 108.55 140.6 Q111.9 138.6 115.3 136.9 117.55 135.75 120.05 136.2 122.55 136.65 124.3 138.55 131.7 146.45 136.25 154.15 137.35 155.95 137.3 158.15 137.3 160.2 136.15 162.05 133.05 167.05 129.9 171.25 L129.9 198.2 129.85 199.05 129.85 209.45 M122.15 200.9 L122.15 168.75 Q125.9 164.05 129.65 158.15 125.5 151.15 118.7 143.8 113.2 146.55 107.8 150.15 106.75 148.95 105.1 147.7 L102.25 145.55 99.3 143.55 96.3 141.65 Q97.1 135.6 97.3 128.35 90.3 124.9 81 122.8 77.8 128.25 75.05 134.5 L68.65 134 68.55 134 62.25 134.5 Q59.35 128.05 56.25 122.8 46.95 124.9 39.95 128.35 40.15 135.45 41 141.65 L37.9 143.55 35 145.55 32.15 147.7 Q30.5 148.95 29.4 150.15 24.05 146.55 18.55 143.8 11.75 151.15 7.6 158.15 11.8 164.65 15.05 168.75 L15.05 200.9 15.25 200.9 35.1 202.75 Q35.85 202.85 36.4 203.4 36.9 203.95 37 204.75 L37.6 213.45 54.9 214.65 56.05 206.6 Q56.2 205.85 56.8 205.35 57.4 204.85 58.15 204.85 L79.1 204.85 Q79.85 204.85 80.45 205.35 81.05 205.85 81.2 206.6 L82.4 214.65 99.65 213.45 100.3 204.75 Q100.3 203.95 100.85 203.4 101.4 202.85 102.15 202.75 L122 200.9 122.15 200.9 M52.5 181.75 Q52.5 186.65 49 190.2 45.5 193.65 40.55 193.65 35.6 193.65 32.1 190.2 28.65 186.65 28.65 181.75 28.65 176.85 32.1 173.35 35.6 169.9 40.55 169.9 45.5 169.9 49 173.35 52.5 176.85 52.5 181.75 M49.65 182.45 Q49.65 179.2 47.3 176.9 44.95 174.55 41.7 174.55 38.4 174.55 36.1 176.9 33.8 179.2 33.8 182.45 33.8 185.75 36.1 188.05 38.4 190.35 41.7 190.35 44.95 190.35 47.3 188.05 49.65 185.75 49.65 182.45 M68.6 194.7 Q67.05 194.7 65.9 193.7 64.8 192.7 64.8 191.25 L64.8 180.3 Q64.8 178.85 65.9 177.85 67.05 176.8 68.6 176.8 70.2 176.8 71.3 177.85 72.45 178.85 72.45 180.3 L72.45 191.25 Q72.45 192.7 71.3 193.7 70.2 194.7 68.6 194.7 M87.65 182.45 Q87.65 185.75 89.95 188.05 92.3 190.35 95.55 190.35 98.85 190.35 101.15 188.05 103.45 185.75 103.45 182.45 103.45 179.2 101.15 176.9 98.85 174.55 95.55 174.55 92.3 174.55 89.95 176.9 87.65 179.2 87.65 182.45 M84.75 181.75 Q84.75 176.85 88.25 173.35 91.75 169.9 96.7 169.9 101.65 169.9 105.15 173.35 108.6 176.85 108.6 181.75 108.6 186.65 105.15 190.2 101.65 193.65 96.7 193.65 91.75 193.65 88.25 190.2 84.75 186.65 84.75 181.75 M122.15 205.1 L104.4 206.8 103.75 215.6 Q103.75 216.35 103.2 216.9 102.55 217.5 101.8 217.55 L80.7 219.05 80.55 219.05 Q79.7 219.05 79.15 218.55 78.55 218.05 78.45 217.2 L77.25 209.05 60.05 209.05 58.8 217.2 Q58.7 218.05 58 218.55 57.4 219.1 56.55 219.05 L35.45 217.55 Q34.65 217.5 34.1 216.9 33.5 216.35 33.5 215.6 L32.8 206.8 15.05 205.1 15.05 209.55 Q15.05 223 30.75 230.45 45.1 237.3 68.55 237.35 L68.65 237.35 Q92.15 237.3 106.5 230.45 122.15 223 122.15 209.55 L122.15 205.1"/>
  </g>
</svg>