<svg xmlns="http://www.w3.org/2000/svg" xmlns:xlink="http://www.w3.org/1999/xlink">
  <defs/>
  <g>
    <path stroke="none" fill="#FFFFFF" d="M404.5 202.7 Q414.2 202.5 420.1 196.55 425.85 190.55 425.85 180.6 425.85 170.7 420.1 164.75 414.2 158.75 404.5 158.75 L391.55 158.75 391.55 202.7 404.5 202.7 M312.85 203.1 Q319.4 203.1 324.5 200.15 329.6 197.15 332.45 191.9 335.3 186.8 335.45 180.1 335.3 173.2 332.45 168 329.6 162.8 324.5 159.9 319.4 156.95 312.85 156.95 306.15 156.95 301.1 159.9 296 162.8 293 168.15 290.15 173.2 290.15 180.1 290.15 186.8 293 191.9 296 197.15 301.1 200 306.15 203.1 312.85 203.1 M312.85 225.1 Q298.85 225.05 288.35 219.25 277.6 213.45 271.6 203.4 265.5 193.25 265.4 180.1 265.5 166.7 271.6 156.55 274.95 150.9 279.85 146.6 283.65 143.25 288.35 140.7 298.85 134.95 312.85 134.95 326.85 134.95 337.45 140.7 342.05 143.25 345.85 146.6 350.65 150.9 354.05 156.55 359.9 166.7 360.15 180.1 359.9 193.25 354.05 203.45 348 213.6 337.45 219.25 326.85 225.05 312.85 225.1 M405.65 136.45 Q418.9 136.45 428.85 141.9 432.55 143.95 435.65 146.6 441.05 151.2 444.65 157.6 450.2 167.6 450.35 180.6 450.2 193.6 444.5 203.55 438.95 213.55 428.8 219.3 418.9 224.95 405.65 225.1 L374.55 225.1 Q367.4 224.65 367.65 218.2 L367.65 143.35 Q367.4 136.2 374.55 136.45 L405.65 136.45 M503.8 203.1 Q510.35 203.1 515.45 200.15 520.55 197.15 523.45 191.9 526.3 186.8 526.45 180.1 526.3 173.2 523.45 168 520.55 162.8 515.45 159.9 510.35 156.95 503.8 156.95 497.1 156.95 492.1 159.9 487 162.8 483.95 168.15 481.1 173.2 481.1 180.1 481.1 186.8 483.95 191.9 487 197.15 492.1 200 497.1 203.1 503.8 203.1 M585 158.95 L560.2 158.95 Q554.3 158.6 553.95 152.75 L553.95 143.8 Q553.7 138 560.2 137.55 L633.75 137.55 Q639.8 138 640 143.05 L640 143.8 640 152.75 Q639.65 158.6 633.75 158.95 L608.9 158.95 608.9 217.2 Q609.05 223.9 602.05 224.05 L591.85 224.05 Q584.4 224.2 585 217.2 L585 158.95 M503.8 225.1 Q489.85 225.05 479.3 219.25 468.55 213.45 462.55 203.4 456.45 193.25 456.4 180.1 456.45 166.7 462.55 156.55 465.9 150.9 470.8 146.6 474.6 143.25 479.3 140.7 489.85 134.95 503.8 134.95 517.8 134.95 528.4 140.7 533.05 143.25 536.8 146.6 541.65 150.9 545 156.55 550.85 166.7 551.1 180.1 550.85 193.25 545 203.45 539 213.6 528.4 219.25 517.8 225.05 503.8 225.1 M253.7 202.05 Q248.05 212.7 237.75 218.95 227.45 225.05 213.85 225.1 200.55 225.05 190.05 219.25 179.75 213.45 173.8 203.4 167.7 193.25 167.7 180.1 167.7 166.8 173.65 156.7 177 150.95 181.8 146.6 185.45 143.3 189.95 140.85 200.2 134.95 213.65 134.95 225.05 134.95 234.6 139.3 239.65 141.55 243.85 144.75 L245.35 146.6 Q246.75 149.25 244.05 152.15 L235.6 160.55 Q232.05 163.8 226.7 160.8 L225.9 160.25 Q220.55 157.1 213.85 157.1 207.3 157.1 202.5 159.95 197.6 162.8 194.75 168 192.15 173.2 192.15 180.1 192.15 186.95 194.75 191.9 197.6 197.15 202.35 200 207.25 202.85 213.85 202.85 220.75 202.85 226.1 199.95 231.35 197 233.55 191.9 L216.8 191.9 Q212.05 191.15 211.9 187.1 L211.9 177.9 Q212.15 172.95 216.8 173.05 L248.95 173.05 Q260.85 173.25 259.25 183.25 258.2 193.7 253.7 202.05"/>
    <path stroke="none" fill="#368DCD" d="M51.7 181.95 Q51.7 176.25 47.7 172.25 43.65 168.25 37.95 168.25 32.25 168.25 28.2 172.25 24.2 176.25 24.2 181.95 24.2 187.6 28.2 191.6 32.25 195.6 37.95 195.6 43.65 195.6 47.7 191.6 51.7 187.6 51.7 181.95 M132.05 203.95 L131.85 203.95 109 206.15 Q108.1 206.25 107.5 206.9 106.85 207.5 106.85 208.45 L106.1 218.45 86.2 219.85 84.85 210.6 Q84.7 209.7 84 209.1 83.3 208.5 82.4 208.5 L58.25 208.5 Q57.35 208.5 56.7 209.1 56 209.7 55.8 210.6 L54.5 219.85 34.55 218.45 33.9 208.45 Q33.8 207.5 33.15 206.9 32.55 206.25 31.65 206.15 L8.8 203.95 8.6 203.95 8.6 166.9 Q4.85 162.2 0 154.7 4.8 146.7 12.6 138.25 18.9 141.4 25.15 145.5 L28.25 142.7 31.5 140.2 Q32.85 139.2 34.95 137.9 L38.45 135.75 Q37.5 128.55 37.3 120.4 45.3 116.4 56.05 114 59.65 120.05 63 127.45 L70.3 126.9 70.4 126.9 77.7 127.45 Q80.95 120.3 84.6 114 95.35 116.4 103.4 120.4 103.2 128.7 102.25 135.75 L105.75 137.9 109.15 140.2 112.4 142.7 Q114.25 144.2 115.5 145.5 121.75 141.4 128.05 138.25 135.9 146.6 140.65 154.7 136.35 161.55 132.05 166.9 L132.05 203.95 M70.35 196.9 Q72.2 196.9 73.45 195.7 74.75 194.55 74.75 192.85 L74.75 180.25 Q74.75 178.6 73.45 177.45 72.2 176.25 70.35 176.25 68.45 176.25 67.2 177.45 65.9 178.6 65.9 180.25 L65.9 192.85 Q65.9 194.55 67.2 195.7 68.45 196.9 70.35 196.9 M88.95 181.95 Q88.95 187.6 92.95 191.6 97 195.6 102.7 195.6 108.4 195.6 112.45 191.6 116.45 187.6 116.45 181.95 116.45 176.25 112.45 172.25 108.4 168.25 102.7 168.25 97 168.25 92.95 172.25 88.95 176.25 88.95 181.95 M8.6 208.85 L29.05 210.8 29.8 220.95 Q29.85 221.85 30.55 222.5 31.15 223.1 32.1 223.2 L56.4 224.9 Q57.35 224.95 58.1 224.35 58.85 223.75 59 222.8 L60.4 213.4 80.3 213.4 81.65 222.8 Q81.8 223.7 82.5 224.3 83.15 224.9 84.1 224.9 L84.3 224.9 108.6 223.2 Q109.5 223.1 110.15 222.5 110.8 221.85 110.85 220.95 L111.6 210.8 132.05 208.85 132.05 213.95 Q132.05 229.45 114 238 97.5 245.9 70.4 246 L70.3 246 Q43.25 245.9 26.65 238 8.6 229.45 8.6 213.95 L8.6 208.85"/>
    <path stroke="none" fill="#232325" d="M48.4 182.75 Q48.4 186.55 45.75 189.2 43.05 191.85 39.25 191.85 35.5 191.85 32.8 189.2 30.15 186.55 30.15 182.75 30.15 179 32.8 176.35 35.5 173.6 39.25 173.6 43.05 173.6 45.75 176.35 48.4 179 48.4 182.75 M92.3 182.75 Q92.3 179 94.95 176.35 97.6 173.6 101.4 173.6 105.2 173.6 107.85 176.35 110.5 179 110.5 182.75 110.5 186.55 107.85 189.2 105.2 191.85 101.4 191.85 97.6 191.85 94.95 189.2 92.3 186.55 92.3 182.75"/>
  </g>
</svg>