<svg xmlns="http://www.w3.org/2000/svg" xmlns:xlink="http://www.w3.org/1999/xlink">
  <defs/>
  <g>
    <path stroke="none" fill="#FFFFFF" d="M443.25 190.1 Q444.25 226.5 402.95 246.15 371.6 261.4 320.15 261.55 L319.9 261.55 Q268.5 261.4 237.1 246.15 L237.15 246.15 Q195.65 226.5 196.7 190.1 L196.7 113.1 Q191 105.45 184.25 94.8 181.85 91.15 181.75 86.8 181.7 82.4 183.9 78.65 192.95 63.3 207.95 47.3 211.45 43.5 216.5 42.6 221.5 41.65 226.15 44.05 232.9 47.45 239.7 51.45 L242.3 49.35 242.85 49 Q244.95 47.3 247.95 45.35 247.15 36.5 246.95 26.95 246.85 22.5 249.2 18.65 251.5 14.8 255.5 12.8 271 5 291.8 0.4 296.55 -0.7 301.2 1.3 305.8 3.25 308.35 7.55 312.5 14.55 316.5 22.65 L319.75 22.55 320.2 22.55 323.6 22.65 Q327.45 14.8 331.7 7.6 334.15 3.3 338.8 1.3 343.4 -0.7 348.35 0.4 369.05 5 384.6 12.8 388.6 14.8 390.95 18.65 393.25 22.5 393.15 27.05 392.95 36.65 392.15 45.45 L397 48.85 397.5 49.15 400.35 51.45 Q407.1 47.45 413.9 44.05 418.5 41.65 423.5 42.6 428.55 43.5 432.05 47.3 447 63.25 456.1 78.7 458.35 82.4 458.25 86.75 458.2 90.95 455.95 94.65 449.65 104.75 443.3 113.15 L443.3 167.45 443.25 169.15 443.25 190.1 M427.7 172.85 L427.7 167.65 427.75 167.65 427.75 108.1 Q435.25 98.7 442.8 86.75 434.45 72.65 420.75 57.9 409.75 63.45 398.85 70.65 396.7 68.3 393.4 65.8 L387.7 61.4 381.75 57.4 375.7 53.6 Q377.3 41.35 377.7 26.8 363.6 19.8 344.85 15.65 338.45 26.55 332.85 39.15 L320 38.2 319.8 38.2 307.1 39.15 Q301.25 26.2 295 15.65 276.3 19.8 262.25 26.8 262.6 41.05 264.3 53.6 260.2 56.05 258.1 57.4 254.5 59.6 252.2 61.4 L246.5 65.8 Q243.15 68.3 241 70.65 230.15 63.45 219.15 57.9 205.4 72.7 197.1 86.75 205.5 99.85 212.1 108.1 L212.1 172.85 212.5 172.85 252.4 176.65 Q253.95 176.8 255.05 177.95 256.1 179.05 256.25 180.65 L257.5 198.15 292.3 200.6 294.65 184.4 Q294.95 182.9 296.1 181.8 297.35 180.8 298.85 180.8 L341 180.8 Q342.55 180.8 343.8 181.8 344.95 182.9 345.25 184.4 L347.65 200.6 382.4 198.15 383.7 180.65 Q383.75 179.05 384.85 177.95 385.95 176.8 387.45 176.65 L427.4 172.85 427.7 172.85 M352.4 134.35 Q352.4 124.5 359.5 117.4 366.5 110.45 376.45 110.45 386.45 110.45 393.5 117.4 400.5 124.5 400.5 134.35 400.5 144.2 393.5 151.3 386.45 158.25 376.45 158.25 366.5 158.25 359.5 151.3 352.4 144.2 352.4 134.35 M358.25 135.75 Q358.25 142.35 362.9 147 367.6 151.6 374.15 151.6 380.85 151.6 385.45 147 390.1 142.35 390.1 135.75 390.1 129.2 385.45 124.55 380.85 119.8 374.15 119.8 367.6 119.8 362.9 124.55 358.25 129.2 358.25 135.75 M319.9 160.45 Q316.75 160.45 314.45 158.4 312.2 156.4 312.2 153.45 L312.2 131.4 Q312.2 128.5 314.45 126.5 316.75 124.4 319.9 124.4 323.15 124.4 325.35 126.5 327.7 128.5 327.7 131.4 L327.7 153.45 Q327.7 156.4 325.35 158.4 323.15 160.45 319.9 160.45 M427.75 181.35 L392 184.8 390.7 202.45 Q390.65 204.05 389.55 205.15 388.3 206.3 386.75 206.45 L344.25 209.45 343.95 209.45 Q342.3 209.45 341.15 208.4 339.95 207.4 339.7 205.75 L337.3 189.25 302.65 189.25 300.2 205.75 Q299.95 207.45 298.55 208.45 297.35 209.55 295.65 209.45 L253.1 206.45 Q251.55 206.3 250.4 205.15 249.25 204.05 249.2 202.45 L247.85 184.8 212.1 181.35 212.1 190.3 Q212.1 217.4 243.65 232.35 272.6 246.15 319.8 246.3 L320 246.3 Q367.35 246.15 396.25 232.35 427.7 217.4 427.7 190.3 L427.75 181.35 M451.25 312.05 L433.3 312.05 Q429.05 311.75 428.75 307.55 L428.75 301.05 Q428.6 296.8 433.3 296.5 L486.6 296.5 Q491 296.8 491.15 300.5 L491.15 301.05 491.15 307.55 Q490.85 311.75 486.6 312.05 L468.6 312.05 468.6 354.3 Q468.75 359.15 463.65 359.2 L456.25 359.2 Q450.85 359.4 451.25 354.3 L451.25 312.05 M320.45 343.75 Q327.45 343.6 331.75 339.25 335.95 334.95 335.95 327.7 335.95 320.55 331.75 316.25 327.45 311.9 320.45 311.9 L311.1 311.9 311.1 343.75 320.45 343.75 M321.3 295.75 Q330.85 295.75 338.1 299.65 345.4 303.75 349.55 311.05 353.55 318.3 353.7 327.7 353.55 337.2 349.4 344.35 345.4 351.6 338.1 355.85 330.85 359.9 321.3 360 L298.8 360 Q293.65 359.7 293.8 355 L293.8 300.75 Q293.65 295.5 298.8 295.75 L321.3 295.75 M392.4 360 Q382.3 359.9 374.7 355.75 366.9 351.5 362.5 344.3 358.1 336.9 358.05 327.35 358.1 317.7 362.5 310.3 366.9 303 374.7 298.8 382.3 294.6 392.4 294.6 402.55 294.6 410.25 298.8 417.9 303 422.3 310.3 426.55 317.7 426.7 327.35 426.55 336.9 422.3 344.3 417.9 351.65 410.25 355.75 402.55 359.9 392.4 360 M392.4 344.05 Q397.15 344.05 400.85 341.9 404.55 339.75 406.65 335.9 408.75 332.2 408.8 327.35 408.75 322.3 406.65 318.6 404.55 314.85 400.85 312.7 397.15 310.6 392.4 310.6 387.6 310.6 383.9 312.7 380.25 314.85 378.05 318.7 376 322.3 376 327.35 376 332.2 378.05 335.9 380.25 339.75 383.9 341.8 387.6 344.05 392.4 344.05 M287.45 134.35 Q287.45 144.2 280.4 151.3 273.35 158.25 263.45 158.25 253.4 158.25 246.4 151.3 239.4 144.2 239.4 134.35 239.4 124.5 246.4 117.4 253.4 110.45 263.45 110.45 273.35 110.45 280.4 117.4 287.45 124.5 287.45 134.35 M281.7 135.75 Q281.7 129.2 277 124.55 272.3 119.8 265.75 119.8 259.1 119.8 254.4 124.55 249.8 129.2 249.8 135.75 249.8 142.35 254.4 147 259.1 151.6 265.75 151.6 272.3 151.6 277 147 281.7 142.35 281.7 135.75 M211.2 343.25 Q207.1 351 199.65 355.5 192.15 359.9 182.3 360 172.65 359.9 165.05 355.75 157.55 351.5 153.25 344.3 148.85 336.9 148.85 327.35 148.85 317.7 153.1 310.4 157.4 303.05 164.95 298.9 172.35 294.6 182.15 294.6 190.4 294.6 197.35 297.75 200.95 299.45 204.05 301.75 206.8 304.3 204.2 307.05 L198 313.25 191.65 313.4 191 313 Q187.15 310.7 182.3 310.7 177.55 310.7 174.05 312.75 170.5 314.85 168.45 318.6 166.5 322.3 166.5 327.35 166.5 332.35 168.45 335.9 170.5 339.75 174 341.8 177.55 343.9 182.3 343.9 187.3 343.9 191.15 341.75 195 339.65 196.55 335.9 L184.4 335.9 Q181 335.35 180.85 332.4 L180.85 325.8 Q181.05 322.15 184.4 322.25 L207.75 322.25 Q216.35 322.4 215.2 329.65 214.45 337.2 211.2 343.25 M254.05 360 Q243.95 359.9 236.3 355.75 228.45 351.5 224.15 344.3 219.75 336.9 219.65 327.35 219.75 317.7 224.15 310.3 228.45 303 236.3 298.8 243.95 294.6 254.05 294.6 264.2 294.6 271.85 298.8 279.55 303 283.9 310.3 288.15 317.7 288.3 327.35 288.15 336.9 283.9 344.3 279.55 351.65 271.85 355.75 264.2 359.9 254.05 360 M254.05 344.05 Q258.8 344.05 262.5 341.9 266.2 339.75 268.3 335.9 270.35 332.2 270.45 327.35 270.35 322.3 268.3 318.6 266.2 314.85 262.5 312.7 258.8 310.6 254.05 310.6 249.2 310.6 245.55 312.7 241.85 314.85 239.6 318.7 237.6 322.3 237.6 327.35 237.6 332.2 239.6 335.9 241.85 339.75 245.55 341.8 249.2 344.05 254.05 344.05"/>
  </g>
</svg>