<svg xmlns="http://www.w3.org/2000/svg" xmlns:xlink="http://www.w3.org/1999/xlink">
  <defs>
    <linearGradient gradientUnits="userSpaceOnUse" x1="-819.2" x2="819.2" spreadMethod="pad" gradientTransform="matrix(0 0.09539794921875 -0.1170196533203125 0 319.2 121.2)" id="gradient0">
      <stop offset="0" stop-color="#479DFC"/>
      <stop offset="1" stop-color="#1C77DB"/>
    </linearGradient>
  </defs>
  <g>
    <path stroke="none" fill="url(#gradient0)" d="M211.65 99.55 L211.5 99.55 Q203.95 89.8 196.55 77.8 204.95 63.8 218.6 48.95 229.75 54.6 240.7 61.7 242.9 59.45 246.2 56.95 L251.95 52.6 257.15 48.9 Q255.2 33.2 254.65 14.95 273.55 5.5 298.65 0 306.25 12.85 313.75 29.3 L319.85 29 320.25 29 326.2 29.3 Q333.85 12.85 341.5 0 366.6 5.5 385.3 14.95 384.9 33.2 382.95 48.9 L388.1 52.6 393.9 56.95 Q397.1 59.45 399.25 61.7 410.2 54.6 421.3 48.95 435.15 63.8 443.35 77.8 436.15 89.8 428.55 99.55 L428.35 99.55 428.35 123.35 Q419.85 124.75 413.6 133.8 406.75 143.6 406.75 157.7 L406.85 160.3 387.8 164.65 387.65 164.65 Q385.55 165.2 383.65 167.1 L383.35 167.1 Q382 169 381.55 171.65 L380.55 187.05 349.8 191.75 347.9 178 Q347.6 175.6 345.6 174.05 L345.45 174.05 Q343.7 172.45 341.15 172.7 330.55 173.2 319.9 173.2 309.4 173.2 298.8 172.7 296.35 172.45 294.5 174.05 294.3 173.9 294.3 174.05 292.4 175.6 292.05 178 L290.1 191.75 259.4 187.05 Q259.05 179.2 258.35 171.65 258 169 256.65 167.1 L256.3 167.1 Q254.5 165.2 252.3 164.65 L233.25 160.3 233.25 157.7 Q233.25 143.6 226.4 133.8 L226.35 133.8 Q220.15 124.75 211.65 123.35 L211.65 99.55 M353.3 123.95 Q353.3 128.45 355 132.65 356.65 136.5 359.7 139.6 362.85 142.6 366.85 144.35 370.95 145.9 375.3 145.9 379.8 145.9 383.75 144.35 387.85 142.6 390.85 139.6 393.9 136.5 395.55 132.65 397.45 128.45 397.45 123.95 397.45 119.45 395.55 115.45 394.35 112.7 392.7 110.4 L390.85 108.45 390.2 107.6 Q387.4 105.25 383.75 103.65 379.8 101.8 375.3 101.8 370.95 101.8 366.85 103.65 363.15 105.25 360.4 107.6 L359.7 108.45 358.15 110.4 Q356.05 112.7 355 115.45 353.3 119.45 353.3 123.95 M319.9 128.5 Q316.2 128.5 313.6 131.55 310.9 134.55 310.9 138.8 L310.9 150.9 Q310.9 155.15 313.6 158.05 316.2 161.05 319.9 161.05 323.7 161.05 326.35 158.05 328.95 155.15 328.95 150.9 L328.95 138.8 Q328.95 134.55 326.35 131.55 323.7 128.5 319.9 128.5 M286.75 123.95 Q286.75 119.45 285.15 115.45 283.85 112.7 282.05 110.4 L280.45 108.45 279.6 107.6 Q276.9 105.25 273.35 103.65 269.3 101.8 264.7 101.8 260.2 101.8 256.3 103.65 252.75 105.25 249.8 107.6 L249.05 108.45 247.45 110.4 Q245.65 112.7 244.5 115.45 242.65 119.45 242.65 123.95 242.65 128.45 244.5 132.65 246.05 136.5 249.05 139.6 252.1 142.6 256.3 144.35 260.2 145.9 264.7 145.9 269.3 145.9 273.35 144.35 277.25 142.6 280.45 139.6 283.35 136.5 285.15 132.65 286.75 128.45 286.75 123.95"/>
    <path stroke="none" fill="#1C77DB" d="M441.55 159.5 Q441.55 154.65 439.95 151.3 438.45 147.95 436.15 147.95 433.85 147.95 432.25 151.3 430.65 154.65 430.65 159.5 430.65 164.25 432.25 167.7 433.85 171.15 436.15 171.15 438.45 171.15 439.95 167.7 441.55 164.25 441.55 159.5 M220.15 206.4 Q215.45 200.3 213.3 193.45 L210.8 184.5 208 185 Q201.8 184.8 197.2 178.15 L197.1 178.15 Q191.9 170.3 191.9 159.5 191.9 148.55 197.2 140.7 L197.1 140.7 Q201.8 134.1 208 133.8 209.95 133.95 211.65 134.55 215.75 136 218.95 140.7 224.15 148.55 224.15 159.5 L224.15 159.9 Q224.15 165.6 222.7 170.5 L222.7 170.65 231.5 172.45 245.2 175.6 246.45 191.25 Q246.3 193.85 248.4 195.95 250.15 197.85 252.7 198.35 274 202.25 295.3 205.05 298.05 205.1 300.1 203.65 302.2 202 302.55 199.6 L304.7 185.4 319.9 185.45 335.35 185.4 337.55 199.6 Q337.9 202 339.85 203.65 341.9 205.1 344.65 205.05 366.05 202.25 387.4 198.35 389.95 197.85 391.55 195.95 L391.7 195.95 Q393.65 193.85 393.55 191.25 L394.9 175.6 408.6 172.45 417.3 170.3 Q415.95 165.6 415.8 159.9 L415.8 159.5 Q415.8 148.55 421.1 140.7 L421 140.7 Q424.2 136 428.35 134.55 L431.9 133.8 Q438.3 134.1 442.85 140.7 448.05 148.55 448.05 159.5 448.05 170.3 442.85 178.15 438.3 184.8 431.9 185 L429.45 184.65 426.75 193.45 Q424.55 200.3 419.85 206.4 411.8 216.85 396.7 224.1 382.35 231 362.35 234.55 343 238.25 320.25 238.25 L319.85 238.25 Q296.95 238.25 277.6 234.55 257.75 231 243.3 224.1 228.15 216.85 220.15 206.4 M210.45 159.5 Q210.45 154.65 208.85 151.3 207.35 147.95 205 147.95 202.7 147.95 201.2 151.3 199.65 154.65 199.65 159.5 199.65 164.25 201.2 167.7 202.7 171.15 205 171.15 207.35 171.15 208.85 167.7 210.45 164.25 210.45 159.5"/>
    <path stroke="none" fill="#FFFFFF" d="M320.65 337.15 Q330.55 336.95 336.55 330.9 342.4 324.75 342.4 314.6 342.4 304.5 336.55 298.45 330.55 292.35 320.65 292.35 L307.5 292.35 307.5 337.15 320.65 337.15 M321.8 269.6 Q335.35 269.6 345.5 275.15 355.8 280.9 361.6 291.15 367.25 301.35 367.4 314.6 367.25 327.9 361.45 338 355.8 348.2 345.45 354.1 335.35 359.85 321.8 360 L290.15 360 Q282.85 359.55 283.1 352.95 L283.1 276.65 Q282.85 269.35 290.15 269.6 L321.8 269.6 M421.9 360 Q407.7 359.95 396.95 354.05 385.95 348.1 379.85 337.85 373.65 327.5 373.6 314.1 373.65 300.45 379.85 290.1 385.95 279.85 396.95 273.95 407.7 268.05 421.9 268.05 436.2 268.05 447 273.95 457.8 279.85 463.95 290.1 469.9 300.45 470.15 314.1 469.9 327.5 463.95 337.9 457.8 348.25 447 354.05 436.2 359.95 421.9 360 M504.75 292.55 L479.45 292.55 Q473.4 292.2 473.05 286.2 L473.05 277.1 Q472.8 271.15 479.45 270.7 L554.45 270.7 Q560.6 271.15 560.8 276.3 L560.8 277.1 560.8 286.2 Q560.45 292.2 554.45 292.55 L529.1 292.55 529.1 351.95 Q529.25 358.8 522.1 358.95 L511.7 358.95 Q504.1 359.1 504.75 351.95 L504.75 292.55 M421.9 337.55 Q428.6 337.55 433.8 334.55 439 331.5 441.95 326.15 444.85 320.95 445 314.1 444.85 307.05 441.95 301.75 439 296.45 433.8 293.5 428.6 290.5 421.9 290.5 415.1 290.5 410 293.5 404.8 296.45 401.65 301.9 398.75 307.05 398.75 314.1 398.75 320.95 401.65 326.15 404.8 331.5 410 334.4 415.1 337.55 421.9 337.55 M166.9 336.5 Q161.15 347.35 150.65 353.75 140.15 359.95 126.3 360 112.7 359.95 102 354.05 91.5 348.1 85.45 337.85 79.2 327.5 79.2 314.1 79.2 300.55 85.3 290.25 91.25 279.9 101.9 274.1 112.35 268.05 126.05 268.05 137.7 268.05 147.45 272.5 152.6 274.8 156.85 278.05 160.8 281.65 157.05 285.6 L148.45 294.15 Q144.85 297.5 139.4 294.45 L138.55 293.85 Q133.1 290.65 126.3 290.65 119.6 290.65 114.7 293.55 109.7 296.45 106.8 301.75 104.15 307.05 104.15 314.1 104.15 321.1 106.8 326.15 109.7 331.5 114.55 334.4 119.55 337.3 126.3 337.3 133.3 337.3 138.75 334.35 144.1 331.35 146.35 326.15 L129.3 326.15 Q124.45 325.4 124.3 321.25 L124.3 311.85 Q124.55 306.8 129.3 306.9 L162.05 306.9 Q174.2 307.1 172.55 317.3 171.5 328 166.9 336.5 M227.25 337.55 Q233.9 337.55 239.1 334.55 244.3 331.5 247.2 326.15 250.15 320.95 250.3 314.1 250.15 307.05 247.2 301.75 244.3 296.45 239.1 293.5 233.9 290.5 227.25 290.5 220.4 290.5 215.25 293.5 210.05 296.45 207 301.9 204.1 307.05 204.1 314.1 204.1 320.95 207 326.15 210.05 331.5 215.25 334.4 220.4 337.55 227.25 337.55 M227.25 360 Q212.95 359.95 202.25 354.05 191.3 348.1 185.15 337.85 178.95 327.5 178.85 314.1 178.95 300.45 185.15 290.1 191.3 279.85 202.25 273.95 212.95 268.05 227.25 268.05 241.5 268.05 252.3 273.95 263.1 279.85 269.25 290.1 275.2 300.45 275.45 314.1 275.2 327.5 269.25 337.9 263.1 348.25 252.3 354.05 241.5 359.95 227.25 360"/>
  </g>
</svg>