<svg xmlns="http://www.w3.org/2000/svg" xmlns:xlink="http://www.w3.org/1999/xlink">
  <defs>
    <linearGradient gradientUnits="userSpaceOnUse" x1="-819.2" x2="819.2" spreadMethod="pad" gradientTransform="matrix(0 0.05206298828125 -0.063873291015625 0 69.5 181.15)" id="gradient0">
      <stop offset="0" stop-color="#479DFC"/>
      <stop offset="1" stop-color="#1C77DB"/>
    </linearGradient>
  </defs>
  <g>
    <path stroke="none" fill="#FFFFFF" d="M404.5 202.7 Q414.2 202.5 420.1 196.55 425.85 190.55 425.85 180.6 425.85 170.7 420.1 164.75 414.2 158.75 404.5 158.75 L391.55 158.75 391.55 202.7 404.5 202.7 M312.9 203.1 Q319.45 203.1 324.55 200.15 329.6 197.15 332.45 191.9 335.3 186.8 335.45 180.1 335.3 173.2 332.45 168 329.6 162.8 324.55 159.9 319.45 156.95 312.9 156.95 306.2 156.95 301.15 159.9 296.05 162.8 293.05 168.15 290.2 173.2 290.2 180.1 290.2 186.8 293.05 191.9 296.05 197.15 301.15 200 306.2 203.1 312.9 203.1 M312.9 225.1 Q298.9 225.05 288.4 219.25 277.65 213.45 271.65 203.4 265.55 193.25 265.45 180.1 265.55 166.7 271.65 156.55 275 150.9 279.9 146.6 283.7 143.25 288.4 140.7 298.9 134.95 312.9 134.95 326.9 134.95 337.45 140.7 342.05 143.25 345.85 146.6 350.65 150.9 354.05 156.55 359.9 166.7 360.15 180.1 359.9 193.25 354.05 203.45 348 213.6 337.45 219.25 326.9 225.05 312.9 225.1 M405.65 136.45 Q418.9 136.45 428.85 141.9 432.55 143.95 435.65 146.6 441.05 151.2 444.65 157.6 450.2 167.6 450.35 180.6 450.2 193.6 444.5 203.55 438.95 213.55 428.8 219.3 418.9 224.95 405.65 225.1 L374.55 225.1 Q367.4 224.65 367.65 218.2 L367.65 143.35 Q367.4 136.2 374.55 136.45 L405.65 136.45 M503.8 203.1 Q510.35 203.1 515.45 200.15 520.55 197.15 523.45 191.9 526.3 186.8 526.45 180.1 526.3 173.2 523.45 168 520.55 162.8 515.45 159.9 510.35 156.95 503.8 156.95 497.1 156.95 492.1 159.9 487 162.8 483.95 168.15 481.1 173.2 481.1 180.1 481.1 186.8 483.95 191.9 487 197.15 492.1 200 497.1 203.1 503.8 203.1 M585 158.95 L560.2 158.95 Q554.3 158.6 553.95 152.75 L553.95 143.8 Q553.7 138 560.2 137.55 L633.75 137.55 Q639.8 138 640 143.05 L640 143.8 640 152.75 Q639.65 158.6 633.75 158.95 L608.9 158.95 608.9 217.2 Q609.05 223.9 602.05 224.05 L591.85 224.05 Q584.4 224.2 585 217.2 L585 158.95 M503.8 225.1 Q489.85 225.05 479.3 219.25 468.55 213.45 462.55 203.4 456.45 193.25 456.4 180.1 456.45 166.7 462.55 156.55 465.9 150.9 470.8 146.6 474.6 143.25 479.3 140.7 489.85 134.95 503.8 134.95 517.8 134.95 528.4 140.7 533.05 143.25 536.8 146.6 541.65 150.9 545 156.55 550.85 166.7 551.1 180.1 550.85 193.25 545 203.45 539 213.6 528.4 219.25 517.8 225.05 503.8 225.1 M253.75 202.05 Q248.1 212.7 237.8 218.95 227.5 225.05 213.9 225.1 200.6 225.05 190.1 219.25 179.8 213.45 173.85 203.4 167.75 193.25 167.75 180.1 167.75 166.8 173.7 156.7 177.05 150.95 181.85 146.6 185.5 143.3 190 140.85 200.25 134.95 213.7 134.95 225.1 134.95 234.65 139.3 239.7 141.55 243.9 144.75 244.9 145.65 245.4 146.6 246.8 149.25 244.1 152.15 L235.65 160.55 Q232.1 163.8 226.75 160.8 L225.95 160.25 Q220.6 157.1 213.9 157.1 207.35 157.1 202.55 159.95 197.65 162.8 194.8 168 192.2 173.2 192.2 180.1 192.2 186.95 194.8 191.9 197.65 197.15 202.4 200 207.3 202.85 213.9 202.85 220.8 202.85 226.15 199.95 231.4 197 233.6 191.9 L216.85 191.9 Q212.1 191.15 211.95 187.1 L211.95 177.9 Q212.2 172.95 216.85 173.05 L249 173.05 Q260.9 173.25 259.3 183.25 258.25 193.7 253.75 202.05"/>
    <path stroke="none" fill="url(#gradient0)" d="M51.8 182.65 Q51.8 180.2 50.9 178 L49.2 175.25 48.35 174.2 47.9 173.7 Q46.4 172.45 44.5 171.55 42.25 170.55 39.75 170.55 37.3 170.55 35.15 171.55 33.25 172.45 31.6 173.7 L31.2 174.2 30.35 175.25 Q29.35 176.5 28.75 178 27.7 180.2 27.7 182.65 27.7 185.1 28.75 187.4 29.55 189.5 31.2 191.2 32.85 192.8 35.15 193.8 37.3 194.6 39.75 194.6 42.25 194.6 44.5 193.8 46.6 192.8 48.35 191.2 49.95 189.5 50.9 187.4 51.8 185.1 51.8 182.65 M10.8 169.35 L10.7 169.35 Q6.6 164 2.55 157.45 7.15 149.8 14.6 141.7 20.65 144.8 26.65 148.65 L29.65 146.1 32.8 143.7 35.65 141.7 Q34.55 133.1 34.25 123.15 44.6 118 58.3 115 62.45 122 66.55 131 L69.85 130.85 70.1 130.85 73.35 131 Q77.5 122 81.7 115 95.4 118 105.6 123.15 105.35 133.1 104.3 141.7 L107.1 143.7 110.3 146.1 113.2 148.65 Q119.2 144.8 125.25 141.7 132.8 149.8 137.3 157.45 133.35 164 129.2 169.35 L129.1 169.35 129.1 182.3 Q124.45 183.1 121.05 188 117.3 193.35 117.3 201.05 L117.35 202.5 106.95 204.85 106.85 204.85 Q105.75 205.15 104.7 206.2 L104.55 206.2 Q103.8 207.25 103.55 208.65 L103 217.1 86.2 219.65 85.15 212.15 Q85 210.85 83.9 210 L83.85 210 Q82.9 209.1 81.5 209.25 L69.9 209.5 58.35 209.25 Q57.05 209.1 56 210 L55.9 210 Q54.9 210.85 54.7 212.15 L53.6 219.65 36.85 217.1 36.3 208.65 Q36.1 207.25 35.35 206.2 L35.15 206.2 Q34.2 205.15 33 204.85 L22.6 202.5 22.6 201.05 Q22.6 193.35 18.85 188 L18.8 188 Q15.45 183.1 10.8 182.3 L10.8 169.35 M69.9 185.15 Q67.85 185.15 66.45 186.8 64.95 188.45 64.95 190.75 L64.95 197.35 Q64.95 199.65 66.45 201.25 67.85 202.9 69.9 202.9 71.95 202.9 73.4 201.25 74.85 199.65 74.85 197.35 L74.85 190.75 Q74.85 188.45 73.4 186.8 71.95 185.15 69.9 185.15 M88.1 182.65 Q88.1 185.1 89.05 187.4 89.95 189.5 91.6 191.2 93.35 192.8 95.5 193.8 97.75 194.6 100.15 194.6 102.6 194.6 104.75 193.8 107 192.8 108.6 191.2 110.3 189.5 111.2 187.4 112.2 185.1 112.2 182.65 112.2 180.2 111.2 178 L109.65 175.25 108.6 174.2 108.25 173.7 Q106.75 172.45 104.75 171.55 102.6 170.55 100.15 170.55 97.75 170.55 95.5 171.55 93.5 172.45 92 173.7 L91.6 174.2 90.75 175.25 Q89.6 176.5 89.05 178 88.1 180.2 88.1 182.65"/>
    <path stroke="none" fill="#1C77DB" d="M15.45 227.65 Q12.85 224.3 11.7 220.55 L10.35 215.7 8.8 215.95 Q5.4 215.85 2.9 212.2 L2.85 212.2 Q0 207.95 0 202.05 0 196.05 2.9 191.8 L2.85 191.8 Q5.4 188.2 8.8 188 L10.8 188.45 Q13.05 189.2 14.8 191.8 17.6 196.05 17.6 202.05 L17.6 202.25 Q17.6 205.35 16.8 208.05 L16.8 208.15 21.65 209.1 29.1 210.85 29.8 219.35 Q29.7 220.8 30.85 221.95 31.8 222.95 33.2 223.25 L56.45 226.9 Q57.95 226.95 59.1 226.15 60.25 225.25 60.4 223.95 L61.6 216.2 69.9 216.2 78.3 216.2 79.5 223.95 Q79.7 225.25 80.8 226.15 81.9 226.95 83.4 226.9 L106.75 223.25 Q108.15 222.95 109 221.95 L109.1 221.95 Q110.15 220.8 110.1 219.35 L110.85 210.85 118.3 209.1 123.05 207.95 Q122.3 205.35 122.25 202.25 L122.25 202.05 Q122.25 196.05 125.15 191.8 L125.1 191.8 Q126.85 189.2 129.1 188.45 130 188.1 131.05 188 134.5 188.2 137 191.8 139.85 196.05 139.85 202.05 139.85 207.95 137 212.2 134.5 215.85 131.05 215.95 L129.7 215.75 128.2 220.55 Q127 224.3 124.45 227.65 120.05 233.35 111.8 237.3 104 241.05 93.05 243 82.5 245 70.1 245 L69.85 245 Q57.35 245 46.8 243 35.95 241.05 28.05 237.3 19.8 233.35 15.45 227.65 M10.15 202.05 Q10.15 199.4 9.25 197.55 8.45 195.75 7.15 195.75 5.9 195.75 5.1 197.55 4.25 199.4 4.25 202.05 4.25 204.65 5.1 206.5 5.9 208.4 7.15 208.4 8.45 208.4 9.25 206.5 10.15 204.65 10.15 202.05 M136.3 202.05 Q136.3 199.4 135.4 197.55 134.6 195.75 133.35 195.75 132.1 195.75 131.2 197.55 130.35 199.4 130.35 202.05 130.35 204.65 131.2 206.5 132.1 208.4 133.35 208.4 134.6 208.4 135.4 206.5 136.3 204.65 136.3 202.05"/>
  </g>
</svg>