<svg xmlns="http://www.w3.org/2000/svg" xmlns:xlink="http://www.w3.org/1999/xlink">
  <defs/>
  <g>
    <path stroke="none" fill="#FFFFFF" d="M404.5 202.7 Q414.2 202.5 420.1 196.55 425.85 190.55 425.85 180.6 425.85 170.7 420.1 164.75 414.2 158.75 404.5 158.75 L391.55 158.75 391.55 202.7 404.5 202.7 M312.85 203.1 Q319.4 203.1 324.5 200.15 329.6 197.15 332.45 191.9 335.3 186.8 335.45 180.1 335.3 173.2 332.45 168 329.6 162.8 324.5 159.9 319.4 156.95 312.85 156.95 306.15 156.95 301.1 159.9 296 162.8 293 168.15 290.15 173.2 290.15 180.1 290.15 186.8 293 191.9 296 197.15 301.1 200 306.15 203.1 312.85 203.1 M312.85 225.1 Q298.85 225.05 288.35 219.25 277.6 213.45 271.6 203.4 265.5 193.25 265.4 180.1 265.5 166.7 271.6 156.55 274.95 150.9 279.85 146.6 283.65 143.25 288.35 140.7 298.85 134.95 312.85 134.95 326.85 134.95 337.45 140.7 342.05 143.25 345.85 146.6 350.65 150.9 354.05 156.55 359.9 166.7 360.15 180.1 359.9 193.25 354.05 203.45 348 213.6 337.45 219.25 326.85 225.05 312.85 225.1 M405.65 136.45 Q418.9 136.45 428.85 141.9 432.55 143.95 435.65 146.6 441.05 151.2 444.65 157.6 450.2 167.6 450.35 180.6 450.2 193.6 444.5 203.55 438.95 213.55 428.8 219.3 418.9 224.95 405.65 225.1 L374.55 225.1 Q367.4 224.65 367.65 218.2 L367.65 143.35 Q367.4 136.2 374.55 136.45 L405.65 136.45 M503.8 203.1 Q510.35 203.1 515.45 200.15 520.55 197.15 523.45 191.9 526.3 186.8 526.45 180.1 526.3 173.2 523.45 168 520.55 162.8 515.45 159.9 510.35 156.95 503.8 156.95 497.1 156.95 492.1 159.9 487 162.8 483.95 168.15 481.1 173.2 481.1 180.1 481.1 186.8 483.95 191.9 487 197.15 492.1 200 497.1 203.1 503.8 203.1 M585 158.95 L560.2 158.95 Q554.3 158.6 553.95 152.75 L553.95 143.8 Q553.7 138 560.2 137.55 L633.75 137.55 Q639.8 138 640 143.05 L640 143.8 640 152.75 Q639.65 158.6 633.75 158.95 L608.9 158.95 608.9 217.2 Q609.05 223.9 602.05 224.05 L591.85 224.05 Q584.4 224.2 585 217.2 L585 158.95 M503.8 225.1 Q489.85 225.05 479.3 219.25 468.55 213.45 462.55 203.4 456.45 193.25 456.4 180.1 456.45 166.7 462.55 156.55 465.9 150.9 470.8 146.6 474.6 143.25 479.3 140.7 489.85 134.95 503.8 134.95 517.8 134.95 528.4 140.7 533.05 143.25 536.8 146.6 541.65 150.9 545 156.55 550.85 166.7 551.1 180.1 550.85 193.25 545 203.45 539 213.6 528.4 219.25 517.8 225.05 503.8 225.1 M253.7 202.05 Q248.05 212.7 237.75 218.95 227.45 225.05 213.85 225.1 200.55 225.05 190.05 219.25 L190 219.25 Q179.75 213.45 173.8 203.4 167.7 193.25 167.7 180.1 167.7 166.8 173.65 156.7 177 150.95 181.8 146.6 185.45 143.3 189.95 140.85 L190 140.85 Q200.25 134.95 213.65 134.95 225.05 134.95 234.6 139.3 239.65 141.55 243.85 144.75 L245.35 146.6 Q246.75 149.25 244.05 152.15 L235.6 160.55 Q232.05 163.8 226.7 160.8 L225.9 160.25 Q220.55 157.1 213.85 157.1 207.3 157.1 202.5 159.95 197.6 162.8 194.75 168 192.15 173.2 192.15 180.1 192.15 186.95 194.75 191.9 197.6 197.15 202.35 200 207.25 202.85 213.85 202.85 220.75 202.85 226.1 199.95 231.35 197 233.55 191.9 L216.8 191.9 Q212.05 191.15 211.9 187.1 L211.9 177.9 Q212.15 172.95 216.8 173.05 L248.95 173.05 Q260.85 173.25 259.25 183.25 258.2 193.7 253.7 202.05 M34.65 122.65 Q44.8 117.85 56.85 115.4 61.55 114.6 63.75 117.9 L68.95 127.05 73.15 119.4 Q75.65 114.4 81.3 115.5 91.9 117.8 101.95 122.5 107.45 124.65 107.45 129 L106.5 142.75 107.85 143.8 114 140.45 Q118.45 138.05 121.4 140.25 129.65 146.3 134.2 155.75 136.4 160.35 134.2 164.25 L128.2 172.85 128.2 181.65 Q135.45 185.3 137.6 195.05 138.9 203.9 134.65 212.1 132.45 216.45 127.45 218.25 122.25 232.8 102.5 239.5 76.6 247.7 49.95 243.05 29.7 239.35 20.95 232.2 13.1 225.65 10.7 218.15 2.4 213.7 0.65 204.75 -1.1 197.05 1.9 189.8 4.45 184.1 9.6 181.45 L9.6 172.8 3.3 163.45 Q0.8 159.25 4.85 153.55 9.25 147.4 14.7 141.35 18.4 137.5 23.35 140.25 L29.95 143.9 31.55 142.5 Q30.25 136.55 30.35 130.65 30.4 124.75 34.65 122.65 M16.45 170.5 L16.45 182.05 Q20.55 182.7 23.55 187.15 L23.6 187.15 Q26.9 191.9 26.9 198.7 L26.9 200 36.2 202.1 Q37.2 202.4 38.1 203.3 L38.25 203.3 Q38.9 204.2 39.1 205.5 L39.6 212.95 54.5 215.25 55.45 208.55 Q55.65 207.4 56.55 206.65 L56.65 206.65 Q57.55 205.9 58.75 206 L69 206.25 79.3 206 Q80.5 205.9 81.4 206.65 L81.45 206.65 Q82.45 207.4 82.6 208.55 L83.5 215.25 98.45 212.95 98.9 205.5 Q99.1 204.2 99.8 203.3 L99.95 203.3 Q100.85 202.4 101.85 202.1 L101.95 202.1 111.2 200 111.15 198.7 Q111.15 191.9 114.45 187.15 117.5 182.7 121.6 182.05 L121.6 170.5 121.7 170.5 Q125.4 165.75 128.95 159.95 124.95 153.15 118.2 145.95 112.85 148.7 107.5 152.15 L104.9 149.8 102.05 147.7 99.55 145.9 Q100.5 138.3 100.75 129.4 91.65 124.85 79.45 122.15 75.75 128.4 72.05 136.4 L69.15 136.25 68.95 136.25 66 136.4 Q62.35 128.4 58.7 122.15 46.5 124.85 37.3 129.4 37.6 138.3 38.5 145.9 L36 147.7 33.2 149.8 Q31.6 151.05 30.5 152.15 25.2 148.7 19.8 145.95 13.15 153.15 9.1 159.95 12.7 165.75 16.35 170.5 L16.45 170.5 M15.85 199.6 Q15.85 201.9 15.1 203.6 14.35 205.25 13.2 205.25 12.1 205.25 11.35 203.6 10.6 201.9 10.6 199.6 10.6 197.25 11.35 195.6 12.1 193.95 13.2 193.95 14.35 193.95 15.1 195.6 15.85 197.25 15.85 199.6 M20.55 222.4 Q24.45 227.45 31.8 230.95 38.8 234.3 48.45 236.05 57.85 237.8 68.95 237.8 L69.15 237.8 Q80.2 237.8 89.6 236.05 99.3 234.3 106.25 230.95 113.6 227.45 117.5 222.4 119.8 219.4 120.85 216.1 L122.15 211.8 123.35 212 Q126.45 211.9 128.65 208.65 131.2 204.85 131.2 199.6 131.2 194.25 128.65 190.45 126.45 187.25 123.35 187.15 L121.6 187.5 121.5 187.5 Q119.55 188.25 118.05 190.45 L118.1 190.45 Q115.55 194.25 115.55 199.6 L115.55 199.8 Q115.6 202.55 116.3 204.85 L112.05 205.9 105.4 207.4 104.75 215.05 Q104.8 216.3 103.85 217.3 L103.8 217.3 Q103 218.2 101.75 218.45 L81 221.7 Q79.65 221.75 78.7 221.05 77.75 220.2 77.55 219.05 L76.5 212.15 69 212.2 61.6 212.15 60.55 219.05 Q60.4 220.2 59.35 221.05 58.4 221.75 57.05 221.7 L36.35 218.45 Q35.15 218.2 34.25 217.3 33.25 216.3 33.3 215.05 L32.75 207.4 26.05 205.9 21.8 205 21.8 204.95 Q22.5 202.55 22.5 199.8 L22.5 199.6 Q22.5 194.25 20 190.45 18.4 188.15 16.45 187.5 L16.35 187.5 14.65 187.15 Q11.65 187.25 9.35 190.45 L9.4 190.45 Q6.8 194.25 6.8 199.6 6.8 204.85 9.35 208.65 L9.4 208.65 Q11.65 211.9 14.65 212 L16 211.7 17.2 216.1 Q18.3 219.4 20.55 222.4 M52.85 182.35 Q52.85 184.55 52.1 186.55 51.25 188.45 49.85 189.95 48.3 191.4 46.4 192.25 44.4 193 42.2 193 40 193 38.1 192.25 36.1 191.4 34.6 189.95 33.1 188.45 32.35 186.55 31.5 184.55 31.5 182.35 31.5 180.15 32.35 178.2 32.9 176.85 33.8 175.75 L34.6 174.8 34.95 174.4 Q36.4 173.25 38.1 172.5 40 171.6 42.2 171.6 44.4 171.6 46.4 172.5 48.1 173.25 49.4 174.4 L49.85 174.8 50.6 175.75 Q51.5 176.85 52.1 178.2 52.85 180.15 52.85 182.35 M69 184.55 Q70.8 184.55 72.1 186.05 73.4 187.5 73.4 189.55 L73.4 195.45 Q73.4 197.5 72.1 198.9 70.8 200.35 69 200.35 67.2 200.35 65.9 198.9 64.6 197.5 64.6 195.45 L64.6 189.55 Q64.6 187.5 65.9 186.05 67.2 184.55 69 184.55 M85.2 182.35 Q85.2 180.15 86.05 178.2 86.55 176.85 87.55 175.75 L88.3 174.8 88.65 174.4 Q89.95 173.25 91.75 172.5 93.8 171.6 95.9 171.6 98.05 171.6 100 172.5 101.75 173.25 103.1 174.4 L103.4 174.8 104.3 175.75 105.7 178.2 Q106.6 180.15 106.6 182.35 106.6 184.55 105.7 186.55 104.9 188.45 103.4 189.95 101.95 191.4 100 192.25 98.05 193 95.9 193 93.8 193 91.75 192.25 89.85 191.4 88.3 189.95 86.8 188.45 86.05 186.55 85.2 184.55 85.2 182.35 M128 199.6 Q128 201.9 127.25 203.6 126.55 205.25 125.4 205.25 124.3 205.25 123.55 203.6 122.75 201.9 122.75 199.6 122.75 197.25 123.55 195.6 124.3 193.95 125.4 193.95 126.55 193.95 127.25 195.6 128 197.25 128 199.6"/>
  </g>
</svg>