<svg xmlns="http://www.w3.org/2000/svg" xmlns:xlink="http://www.w3.org/1999/xlink">
  <defs/>
  <g>
    <path stroke="none" fill="#FFFFFF" d="M223.25 101.8 L223.25 123.1 Q230.85 124.3 236.4 132.45 L236.45 132.45 Q242.55 141.2 242.55 153.8 L242.55 156.15 259.65 160 Q261.55 160.55 263.15 162.2 L263.5 162.2 Q264.7 163.9 265.05 166.3 L265.95 180.05 293.4 184.25 295.15 171.95 Q295.5 169.8 297.2 168.4 L297.35 168.4 Q299 167 301.2 167.2 310.7 167.7 320.1 167.7 329.6 167.7 339.1 167.2 341.35 167 342.95 168.4 L343.1 168.4 Q344.9 169.8 345.15 171.95 L346.8 184.25 Q360.65 182.45 374.35 180.05 L375.25 166.3 Q375.6 163.9 376.85 162.2 L377.15 162.2 Q378.8 160.55 380.65 160 L380.8 160 397.9 156.15 397.75 153.8 Q397.75 141.2 403.9 132.45 409.5 124.3 417.05 123.1 L417.05 101.8 417.25 101.8 Q424.05 93.05 430.55 82.35 423.2 69.8 410.8 56.55 400.9 61.6 391.1 67.95 389.15 65.95 386.3 63.7 L381.05 59.8 Q379.25 58.25 376.45 56.45 378.2 42.45 378.6 26.1 361.85 17.7 339.4 12.75 332.55 24.2 325.75 38.95 L320.4 38.7 320.05 38.7 314.6 38.95 Q307.9 24.2 301.1 12.75 278.65 17.7 261.7 26.1 262.25 42.45 263.95 56.45 261.15 58.25 259.3 59.8 L254.15 63.7 Q251.2 65.95 249.2 67.95 239.45 61.6 229.45 56.55 217.25 69.8 209.75 82.35 216.35 93.05 223.1 101.8 L223.25 101.8 M256.85 13.65 Q275.5 4.8 297.75 0.3 306.35 -1.2 310.45 4.85 L320 21.7 327.8 7.65 Q332.35 -1.6 342.75 0.5 362.3 4.65 380.85 13.35 390.95 17.35 391 25.35 L389.2 50.7 391.7 52.6 403.05 46.4 Q411.25 42 416.65 46.05 431.85 57.25 440.3 74.6 444.35 83.1 440.3 90.3 L429.25 106.15 429.25 122.35 Q442.55 129.05 446.5 147.05 448.9 163.35 441.1 178.45 437 186.45 427.8 189.8 418.25 216.6 381.85 228.95 334.15 244.05 285.05 235.5 247.7 228.7 231.55 215.5 217.15 203.45 212.65 189.6 197.4 181.45 194.15 164.9 190.95 150.75 196.5 137.4 201.2 126.85 210.65 122 L210.65 106 199.1 88.85 Q194.45 81.1 201.9 70.6 210.05 59.2 220.1 48.1 226.85 41 236 46.1 L248.15 52.8 251.15 50.25 Q248.75 39.25 248.9 28.35 248.95 17.5 256.85 13.65 M349.95 123.65 Q349.95 119.6 351.5 116 352.45 113.55 354.3 111.5 L355.7 109.75 356.3 109 Q358.75 106.85 362.05 105.45 365.8 103.8 369.65 103.8 373.65 103.8 377.2 105.45 380.45 106.85 382.95 109 L383.55 109.75 385.2 111.5 Q386.7 113.55 387.75 116 389.4 119.6 389.4 123.65 389.4 127.65 387.75 131.35 386.3 134.85 383.55 137.65 380.85 140.3 377.2 141.85 373.65 143.25 369.65 143.25 365.8 143.25 362.05 141.85 358.5 140.3 355.7 137.65 352.95 134.85 351.5 131.35 349.95 127.65 349.95 123.65 M320.1 127.7 Q323.45 127.7 325.85 130.45 328.2 133.1 328.2 136.9 L328.2 147.75 Q328.2 151.55 325.85 154.15 323.45 156.8 320.1 156.8 316.8 156.8 314.45 154.15 312.05 151.55 312.05 147.75 L312.05 136.9 Q312.05 133.1 314.45 130.45 316.8 127.7 320.1 127.7 M230.85 197.4 Q238 206.75 251.55 213.2 264.5 219.35 282.25 222.55 299.55 225.85 320.05 225.85 L320.4 225.85 Q340.75 225.85 358.05 222.55 375.95 219.35 388.8 213.2 402.3 206.75 409.5 197.4 413.7 191.9 415.65 185.8 L418.05 177.9 420.25 178.25 Q426 178.05 430.05 172.1 434.75 165.1 434.75 155.4 434.75 145.6 430.05 138.6 426 132.7 420.25 132.45 L417.05 133.1 416.85 133.15 Q413.3 134.5 410.5 138.6 L410.6 138.6 Q405.85 145.6 405.85 155.4 L405.85 155.8 Q405.95 160.9 407.25 165.1 L399.45 167 387.15 169.8 385.95 183.85 Q386.1 186.2 384.35 188.05 L384.2 188.05 Q382.75 189.7 380.45 190.2 361.4 193.65 342.2 196.15 339.75 196.2 337.95 194.95 336.2 193.4 335.85 191.25 L333.95 178.55 320.1 178.65 306.5 178.55 304.55 191.25 Q304.25 193.4 302.35 194.95 300.55 196.2 298.1 196.15 279 193.65 259.95 190.2 257.7 189.7 256.1 188.05 254.2 186.2 254.35 183.85 L253.3 169.8 241 167 233.15 165.4 233.15 165.3 Q234.45 160.9 234.45 155.8 L234.45 155.4 Q234.45 145.6 229.8 138.6 226.9 134.35 223.25 133.1 L223.1 133.1 220 132.45 Q214.45 132.7 210.25 138.6 L210.3 138.6 Q205.55 145.6 205.55 155.4 205.55 165.1 210.25 172.1 L210.3 172.1 Q214.45 178.05 220 178.25 L222.5 177.75 224.7 185.8 Q226.65 191.9 230.85 197.4 M428.85 155.4 Q428.85 159.7 427.45 162.75 426.15 165.8 424.05 165.8 422 165.8 420.6 162.75 419.2 159.7 419.2 155.4 419.2 151.05 420.6 148.05 422 145.05 424.05 145.05 426.15 145.05 427.45 148.05 428.85 151.05 428.85 155.4 M320.65 337.15 Q330.55 336.95 336.55 330.9 342.4 324.75 342.4 314.6 342.4 304.5 336.55 298.45 330.55 292.35 320.65 292.35 L307.5 292.35 307.5 337.15 320.65 337.15 M321.8 269.6 Q335.35 269.6 345.5 275.15 355.8 280.9 361.6 291.15 367.25 301.35 367.4 314.6 367.25 327.9 361.45 338 355.8 348.2 345.45 354.1 335.35 359.85 321.8 360 L290.15 360 Q282.85 359.55 283.1 352.95 L283.1 276.65 Q282.85 269.35 290.15 269.6 L321.8 269.6 M421.9 360 Q407.7 359.95 396.95 354.05 385.95 348.1 379.85 337.85 373.65 327.5 373.6 314.1 373.65 300.45 379.85 290.1 385.95 279.85 396.95 273.95 407.7 268.05 421.9 268.05 436.2 268.05 447 273.95 457.8 279.85 463.95 290.1 469.9 300.45 470.15 314.1 469.9 327.5 463.95 337.9 457.8 348.25 447 354.05 436.2 359.95 421.9 360 M504.75 292.55 L479.45 292.55 Q473.4 292.2 473.05 286.2 L473.05 277.1 Q472.8 271.15 479.45 270.7 L554.45 270.7 Q560.6 271.15 560.8 276.3 L560.8 277.1 560.8 286.2 Q560.45 292.2 554.45 292.55 L529.1 292.55 529.1 351.95 Q529.25 358.8 522.1 358.95 L511.7 358.95 Q504.1 359.1 504.75 351.95 L504.75 292.55 M421.9 337.55 Q428.6 337.55 433.8 334.55 439 331.5 441.95 326.15 444.85 320.95 445 314.1 444.85 307.05 441.95 301.75 439 296.45 433.8 293.5 428.6 290.5 421.9 290.5 415.1 290.5 410 293.5 404.8 296.45 401.65 301.9 398.75 307.05 398.75 314.1 398.75 320.95 401.65 326.15 404.8 331.5 410 334.4 415.1 337.55 421.9 337.55 M222.2 155.4 Q222.2 159.7 220.8 162.75 219.4 165.8 217.3 165.8 215.25 165.8 213.9 162.75 212.5 159.7 212.5 155.4 212.5 151.05 213.9 148.05 215.25 145.05 217.3 145.05 219.4 145.05 220.8 148.05 222.2 151.05 222.2 155.4 M290.4 123.65 Q290.4 127.65 289 131.35 287.4 134.85 284.8 137.65 281.95 140.3 278.45 141.85 274.8 143.25 270.7 143.25 266.7 143.25 263.15 141.85 259.45 140.3 256.7 137.65 254 134.85 252.6 131.35 251 127.65 251 123.65 251 119.6 252.6 116 253.6 113.55 255.3 111.5 L256.7 109.75 257.35 109 Q260.05 106.85 263.15 105.45 266.7 103.8 270.7 103.8 274.8 103.8 278.45 105.45 281.6 106.85 284 109 L284.8 109.75 286.2 111.5 Q287.85 113.55 289 116 290.4 119.6 290.4 123.65 M166.9 336.5 Q161.15 347.35 150.65 353.75 140.15 359.95 126.3 360 112.7 359.95 102 354.05 91.5 348.1 85.45 337.85 79.2 327.5 79.2 314.1 79.2 300.55 85.3 290.25 91.25 279.9 101.9 274.1 112.35 268.05 126.05 268.05 137.7 268.05 147.45 272.5 152.6 274.8 156.85 278.05 160.8 281.65 157.05 285.6 L148.45 294.15 Q144.85 297.5 139.4 294.45 L138.55 293.85 Q133.1 290.65 126.3 290.65 119.6 290.65 114.7 293.55 109.7 296.45 106.8 301.75 104.15 307.05 104.15 314.1 104.15 321.1 106.8 326.15 109.7 331.5 114.55 334.4 119.55 337.3 126.3 337.3 133.3 337.3 138.75 334.35 144.1 331.35 146.35 326.15 L129.3 326.15 Q124.45 325.4 124.3 321.25 L124.3 311.85 Q124.55 306.8 129.3 306.9 L162.05 306.9 Q174.2 307.1 172.55 317.3 171.5 328 166.9 336.5 M227.25 337.55 Q233.9 337.55 239.1 334.55 244.3 331.5 247.2 326.15 250.15 320.95 250.3 314.1 250.15 307.05 247.2 301.75 244.3 296.45 239.1 293.5 233.9 290.5 227.25 290.5 220.4 290.5 215.25 293.5 210.05 296.45 207 301.9 204.1 307.05 204.1 314.1 204.1 320.95 207 326.15 210.05 331.5 215.25 334.4 220.4 337.55 227.25 337.55 M227.25 360 Q212.95 359.95 202.25 354.05 191.3 348.1 185.15 337.85 178.95 327.5 178.85 314.1 178.95 300.45 185.15 290.1 191.3 279.85 202.25 273.95 212.95 268.05 227.25 268.05 241.5 268.05 252.3 273.95 263.1 279.85 269.25 290.1 275.2 300.45 275.45 314.1 275.2 327.5 269.25 337.9 263.1 348.25 252.3 354.05 241.5 359.95 227.25 360"/>
  </g>
</svg>