<svg xmlns="http://www.w3.org/2000/svg" xmlns:xlink="http://www.w3.org/1999/xlink">
  <defs/>
  <g>
    <path stroke="none" fill="#232325" d="M196.7 211.3 Q205.55 211.3 212.45 207.3 219.4 203.25 223.25 196.1 227.1 189.2 227.3 180.15 227.1 170.8 223.25 163.75 219.4 156.7 212.45 152.75 205.55 148.75 196.7 148.75 187.6 148.75 180.75 152.75 173.85 156.7 169.8 163.95 165.9 170.8 165.9 180.15 165.9 189.2 169.8 196.1 173.85 203.25 180.75 207.1 187.6 211.3 196.7 211.3 M196.7 241.1 Q177.7 241.05 163.5 233.2 148.9 225.3 140.8 211.7 132.5 197.95 132.4 180.15 132.5 161.95 140.8 148.2 145.35 140.55 151.95 134.75 157.1 130.2 163.5 126.75 177.7 118.95 196.7 118.95 215.65 118.95 230 126.75 236.25 130.2 241.4 134.75 247.9 140.55 252.5 148.2 260.45 161.95 260.8 180.15 260.45 197.95 252.5 211.75 244.3 225.5 230 233.2 215.65 241.05 196.7 241.1 M455.45 211.3 Q464.3 211.3 471.2 207.3 478.15 203.25 482.05 196.1 485.9 189.2 486.15 180.15 485.9 170.8 482.05 163.75 478.15 156.7 471.2 152.75 464.3 148.75 455.45 148.75 446.35 148.75 439.6 152.75 432.65 156.7 428.55 163.95 424.7 170.8 424.7 180.15 424.7 189.2 428.55 196.1 432.65 203.25 439.6 207.1 446.35 211.3 455.45 211.3 M320.9 210.75 Q334 210.5 342 202.4 349.8 194.3 349.8 180.8 349.8 167.4 342 159.35 334 151.2 320.9 151.2 L303.35 151.2 303.35 210.75 320.9 210.75 M322.45 121 Q340.4 121 353.85 128.35 358.9 131.15 363.1 134.75 370.4 140.95 375.3 149.65 382.8 163.2 383 180.8 382.8 198.4 375.1 211.9 367.55 225.45 353.8 233.25 340.4 240.9 322.45 241.1 L280.3 241.1 Q270.6 240.5 270.95 231.75 L270.95 130.35 Q270.6 120.65 280.3 121 L322.45 121 M455.45 241.1 Q436.55 241.05 422.25 233.2 407.65 225.3 399.55 211.7 391.25 197.95 391.2 180.15 391.25 161.95 399.55 148.2 404.1 140.55 410.7 134.75 415.85 130.2 422.25 126.75 436.55 118.95 455.45 118.95 474.4 118.95 488.75 126.75 495.05 130.2 500.15 134.75 506.7 140.55 511.25 148.2 519.2 161.95 519.55 180.15 519.2 197.95 511.25 211.75 503.15 225.5 488.75 233.2 474.4 241.05 455.45 241.1 M565.45 151.45 L531.85 151.45 Q523.85 151 523.4 143.05 L523.4 130.95 Q523.05 123.1 531.85 122.5 L631.55 122.5 Q639.75 123.1 640 129.95 L640 130.95 640 143.05 Q639.5 151 631.55 151.45 L597.85 151.45 597.85 230.4 Q598.05 239.5 588.55 239.7 L574.75 239.7 Q564.65 239.9 565.45 230.4 L565.45 151.45 M116.55 209.85 Q108.9 224.3 94.9 232.75 80.95 241.05 62.55 241.1 44.5 241.05 30.3 233.2 16.3 225.3 8.25 211.7 0 197.95 0 180.15 0 162.1 8.05 148.4 12.6 140.65 19.1 134.75 24.05 130.25 30.15 126.95 44.05 118.95 62.25 118.95 77.7 118.95 90.65 124.85 97.5 127.9 103.2 132.25 104.55 133.45 105.2 134.75 107.1 138.35 103.45 142.25 L92 153.65 Q87.2 158.05 79.95 154 L78.85 153.25 Q71.6 148.95 62.55 148.95 53.65 148.95 47.15 152.85 40.5 156.7 36.65 163.75 33.15 170.8 33.15 180.15 33.15 189.4 36.65 196.1 40.5 203.25 46.95 207.1 53.6 210.95 62.55 210.95 71.9 210.95 79.15 207.05 86.25 203.05 89.25 196.1 L66.55 196.1 Q60.1 195.1 59.9 189.6 L59.9 177.15 Q60.25 170.45 66.55 170.6 L110.1 170.6 Q126.2 170.85 124.05 184.4 122.65 198.55 116.55 209.85"/>
  </g>
</svg>