<svg width="512" height="512" xmlns="http://www.w3.org/2000/svg" xmlns:xlink="http://www.w3.org/1999/xlink">
  <defs>
    <linearGradient gradientUnits="userSpaceOnUse" x1="-819.2" x2="819.2" spreadMethod="pad" gradientTransform="matrix(0 0.285247802734375 -0.214569091796875 0 252.45 284.95)" id="gradient0">
      <stop offset="0" stop-color="#5192EE"/>
      <stop offset="1" stop-color="#2D64C4"/>
    </linearGradient>
  </defs>
  <g>
    <path stroke="none" fill="#FFFFFF" d="M256 312.15 Q249.9 312.15 245.65 308.2 241.35 304.3 241.35 298.7 L241.35 256.9 Q241.35 251.25 245.65 247.45 247.1 246.05 248.85 245.15 252 243.45 256 243.45 260 243.45 263.15 245.15 264.9 246.05 266.4 247.45 270.7 251.25 270.7 256.9 L270.7 298.7 Q270.7 304.3 266.4 308.2 262.15 312.15 256 312.15 M388.3 58.4 Q387.8 78.8 386.05 97 393.65 101.85 398.75 105.9 L398.6 105.8 408.15 113.15 Q422.7 104.3 437.4 96.95 444.15 93.55 451.55 94.9 458.9 96.15 464.05 101.65 492.05 131.6 508.9 160.35 512.1 165.8 512 172.15 511.95 178.4 508.6 183.8 496 203.85 483.5 220.2 L483.5 351.7 483.5 352.1 483.4 368.85 483.4 369.05 Q484.8 434 410.8 469.35 352.2 497.75 256.2 498 L255.8 498 Q160 497.75 101.3 469.35 26.95 434 28.5 368.85 L28.5 220.2 Q17.2 205.3 3.55 184 0.15 178.6 0 172.2 -0.1 165.8 3.15 160.35 20.05 131.75 47.95 101.7 53.15 96.15 60.55 94.9 67.9 93.55 74.65 96.95 89.3 104.3 103.95 113.15 L113.15 106.05 113.35 105.9 Q118.35 101.9 126.15 97.1 124.3 78.5 123.85 58.35 123.7 51.85 127.05 46.2 130.4 40.6 136.3 37.7 165.15 23 203.8 14.55 210.9 13 217.6 15.9 224.3 18.8 228.05 25.05 236.85 39.9 245.3 57.2 L255.7 56.85 256.4 56.85 266.85 57.2 Q275.05 40.35 283.9 25.2 287.65 18.85 294.45 15.95 301.15 13 308.25 14.55 346.85 23 375.85 37.65 381.7 40.6 385.05 46.3 388.5 51.9 388.3 58.4 M460.8 335.7 L460.8 325.8 460.95 325.8 460.95 212.4 Q475.2 194.6 489.45 171.8 473.65 145.05 447.55 117.1 426.65 127.6 406.05 141.15 401.9 136.9 395.65 132 L384.8 123.65 Q380.35 120.2 373.6 115.9 L361.95 108.8 Q365 85.45 365.75 57.85 339 44.4 303.4 36.6 291.2 57.4 280.5 81.35 270 79.6 256.15 79.45 L255.9 79.45 Q242.1 79.6 231.7 81.35 220.55 56.65 208.6 36.6 173.05 44.4 146.4 57.85 147 84.9 150.2 108.8 L138.55 115.9 Q131.65 120.2 127.2 123.65 L116.35 132 Q110.1 136.9 106 141.15 85.35 127.6 64.45 117.1 38.35 145.15 22.55 171.8 38.5 196.75 51.05 212.4 L51.05 335.7 51.75 335.7 127.6 342.9 Q130.6 343.25 132.6 345.35 134.75 347.5 135 350.45 L137.3 383.85 203.55 388.55 207.85 357.75 Q208.5 354.75 210.75 352.8 213 350.75 215.95 350.75 L296 350.75 Q299 350.75 301.25 352.8 303.6 354.75 304.1 357.75 L308.7 388.55 374.7 383.85 377.15 350.45 Q377.25 347.5 379.4 345.35 381.4 343.25 384.35 342.9 L460.25 335.7 460.8 335.7 M328.85 265.1 Q328.85 277.65 337.7 286.5 346.5 295.35 359.1 295.35 371.75 295.35 380.55 286.5 389.4 277.65 389.4 265.1 L389.4 264.5 Q389.2 253.4 381.85 245.15 L380.55 243.8 Q371.75 234.8 359.1 234.8 346.5 234.8 337.7 243.8 L336.4 245.15 Q329.05 253.4 328.85 264.5 L328.85 265.1 M317.75 262.45 Q317.75 253.15 321.05 245.15 324.4 237 331.2 230.25 344.5 216.95 363.5 216.95 382.45 216.95 395.8 230.25 402.5 237 405.85 245.15 409.1 253.15 409.1 262.45 L409.1 264.5 Q408.4 282 395.8 294.65 382.45 307.85 363.5 307.85 344.5 307.85 331.2 294.65 318.55 282 317.85 264.5 L317.75 262.45 M51.05 351.9 L51.05 368.85 Q51.05 420.45 110.95 448.95 166.05 475.15 255.9 475.45 L256.15 475.45 Q346.05 475.15 401.05 448.95 460.8 420.45 460.8 368.85 L460.95 351.9 460.25 352 392.95 358.45 390.55 392.1 Q390.35 395.05 388.25 397.2 386 399.35 382.95 399.6 L302.25 405.35 301.7 405.35 Q298.55 405.35 296.25 403.35 294.05 401.35 293.6 398.35 L289 367 223.15 367 218.4 398.35 Q218.05 401.5 215.45 403.45 213 405.45 209.8 405.35 L129 399.6 Q126.05 399.35 123.9 397.2 121.65 395.05 121.55 392.1 L119.1 358.45 51.05 351.9 M194.25 262.45 L194.25 264.5 Q193.45 282 180.85 294.65 167.5 307.85 148.55 307.85 129.65 307.85 116.25 294.65 103.6 282 102.9 264.5 L102.85 262.45 Q102.85 253.15 106.1 245.15 109.45 237 116.25 230.25 129.65 216.95 148.55 216.95 167.5 216.95 180.85 230.25 187.6 237 190.95 245.15 194.25 253.15 194.25 262.45 M183.3 265.1 L183.3 264.5 Q183.1 253.4 175.75 245.15 L174.45 243.8 Q165.5 234.8 153 234.8 140.5 234.8 131.45 243.8 L130.15 245.15 Q122.8 253.4 122.6 264.5 L122.6 265.1 Q122.6 277.65 131.45 286.5 140.5 295.35 153 295.35 165.5 295.35 174.45 286.5 183.3 277.65 183.3 265.1"/>
    <path stroke="none" fill="#273B58" d="M183.3 265.1 Q183.3 277.65 174.45 286.5 165.5 295.35 153 295.35 140.5 295.35 131.45 286.5 122.6 277.65 122.6 265.1 L122.6 264.5 Q122.8 253.4 130.15 245.15 L131.45 243.8 Q140.5 234.8 153 234.8 165.5 234.8 174.45 243.8 L175.75 245.15 Q183.1 253.4 183.3 264.5 L183.3 265.1 M328.85 265.1 L328.85 264.5 Q329.05 253.4 336.4 245.15 L337.7 243.8 Q346.5 234.8 359.1 234.8 371.75 234.8 380.55 243.8 L381.85 245.15 Q389.2 253.4 389.4 264.5 L389.4 265.1 Q389.4 277.65 380.55 286.5 371.75 295.35 359.1 295.35 346.5 295.35 337.7 286.5 328.85 277.65 328.85 265.1"/>
    <path stroke="none" fill="url(#gradient0)" d="M460.8 335.7 L460.25 335.7 384.35 342.9 Q381.4 343.25 379.4 345.35 377.25 347.5 377.15 350.45 L374.7 383.85 308.7 388.55 304.1 357.75 Q303.6 354.75 301.25 352.8 299 350.75 296 350.75 L215.95 350.75 Q213 350.75 210.75 352.8 208.5 354.75 207.85 357.75 L203.55 388.55 137.3 383.85 135 350.45 Q134.75 347.5 132.6 345.35 130.6 343.25 127.6 342.9 L51.75 335.7 51.05 335.7 51.05 212.4 Q38.5 196.75 22.55 171.8 38.35 145.15 64.45 117.1 85.35 127.6 106 141.15 110.1 136.9 116.35 132 L127.2 123.65 Q131.65 120.2 138.55 115.9 L150.2 108.8 Q147 84.9 146.4 57.85 173.05 44.4 208.6 36.6 220.55 56.65 231.7 81.35 242.1 79.6 255.9 79.45 L256.15 79.45 Q270 79.6 280.5 81.35 291.2 57.4 303.4 36.6 339 44.4 365.75 57.85 365 85.45 361.95 108.8 L373.6 115.9 Q380.35 120.2 384.8 123.65 L395.65 132 Q401.9 136.9 406.05 141.15 426.65 127.6 447.55 117.1 473.65 145.05 489.45 171.8 475.2 194.6 460.95 212.4 L460.95 325.8 460.8 325.8 460.8 335.7 M317.75 262.45 L317.85 264.5 Q318.55 282 331.2 294.65 344.5 307.85 363.5 307.85 382.45 307.85 395.8 294.65 408.4 282 409.1 264.5 L409.1 262.45 Q409.1 253.15 405.85 245.15 402.5 237 395.8 230.25 382.45 216.95 363.5 216.95 344.5 216.95 331.2 230.25 324.4 237 321.05 245.15 317.75 253.15 317.75 262.45 M194.25 262.45 Q194.25 253.15 190.95 245.15 187.6 237 180.85 230.25 167.5 216.95 148.55 216.95 129.65 216.95 116.25 230.25 109.45 237 106.1 245.15 102.85 253.15 102.85 262.45 L102.9 264.5 Q103.6 282 116.25 294.65 129.65 307.85 148.55 307.85 167.5 307.85 180.85 294.65 193.45 282 194.25 264.5 L194.25 262.45 M51.05 351.9 L119.1 358.45 121.55 392.1 Q121.65 395.05 123.9 397.2 126.05 399.35 129 399.6 L209.8 405.35 Q213 405.45 215.45 403.45 218.05 401.5 218.4 398.35 L223.15 367 289 367 293.6 398.35 Q294.05 401.35 296.25 403.35 298.55 405.35 301.7 405.35 L302.25 405.35 382.95 399.6 Q386 399.35 388.25 397.2 390.35 395.05 390.55 392.1 L392.95 358.45 460.25 352 460.95 351.9 460.8 368.85 Q460.8 420.45 401.05 448.95 346.05 475.15 256.15 475.45 L255.9 475.45 Q166.05 475.15 110.95 448.95 51.05 420.45 51.05 368.85 L51.05 351.9 M256 312.15 Q262.15 312.15 266.4 308.2 270.7 304.3 270.7 298.7 L270.7 256.9 Q270.7 251.25 266.4 247.45 264.9 246.05 263.15 245.15 260 243.45 256 243.45 252 243.45 248.85 245.15 247.1 246.05 245.65 247.45 241.35 251.25 241.35 256.9 L241.35 298.7 Q241.35 304.3 245.65 308.2 249.9 312.15 256 312.15"/>
  </g>
</svg>